<mxfile host="app.diagrams.net" modified="2021-02-13T15:55:36.235Z" agent="5.0 (Macintosh; Intel Mac OS X 10_14_6) AppleWebKit/537.36 (KHTML, like Gecko) Chrome/88.0.4324.96 Safari/537.36" etag="9yRLuPFU9IbMODZxpuPF" version="14.3.1" type="github">
  <diagram id="iah4YjfRyEHW_WjLkxHs" name="Page-1">
    <mxGraphModel dx="1186" dy="764" grid="1" gridSize="10" guides="1" tooltips="1" connect="1" arrows="1" fold="1" page="1" pageScale="1" pageWidth="850" pageHeight="1100" math="0" shadow="0">
      <root>
        <mxCell id="0" />
        <mxCell id="1" parent="0" />
        <mxCell id="vCVCzU44iW817XRHqXJX-4" style="edgeStyle=orthogonalEdgeStyle;rounded=0;orthogonalLoop=1;jettySize=auto;html=1;exitX=0.5;exitY=1;exitDx=0;exitDy=0;exitPerimeter=0;entryX=0.5;entryY=0;entryDx=0;entryDy=0;entryPerimeter=0;" parent="1" source="vCVCzU44iW817XRHqXJX-2" target="vCVCzU44iW817XRHqXJX-3" edge="1">
          <mxGeometry relative="1" as="geometry" />
        </mxCell>
        <mxCell id="vCVCzU44iW817XRHqXJX-2" value="start" style="strokeWidth=2;html=1;shape=mxgraph.flowchart.terminator;whiteSpace=wrap;" parent="1" vertex="1">
          <mxGeometry x="290" y="40" width="100" height="60" as="geometry" />
        </mxCell>
        <mxCell id="vCVCzU44iW817XRHqXJX-6" style="edgeStyle=orthogonalEdgeStyle;rounded=0;orthogonalLoop=1;jettySize=auto;html=1;exitX=0;exitY=0.5;exitDx=0;exitDy=0;exitPerimeter=0;" parent="1" source="vCVCzU44iW817XRHqXJX-3" target="vCVCzU44iW817XRHqXJX-5" edge="1">
          <mxGeometry relative="1" as="geometry" />
        </mxCell>
        <mxCell id="vCVCzU44iW817XRHqXJX-8" style="edgeStyle=orthogonalEdgeStyle;rounded=0;orthogonalLoop=1;jettySize=auto;html=1;exitX=1;exitY=0.5;exitDx=0;exitDy=0;exitPerimeter=0;" parent="1" source="vCVCzU44iW817XRHqXJX-3" target="vCVCzU44iW817XRHqXJX-7" edge="1">
          <mxGeometry relative="1" as="geometry" />
        </mxCell>
        <mxCell id="vCVCzU44iW817XRHqXJX-3" value="if height &amp;gt;80cm" style="strokeWidth=2;html=1;shape=mxgraph.flowchart.decision;whiteSpace=wrap;" parent="1" vertex="1">
          <mxGeometry x="290" y="210" width="100" height="100" as="geometry" />
        </mxCell>
        <mxCell id="vCVCzU44iW817XRHqXJX-5" value="Can&#39;t ride" style="rounded=1;whiteSpace=wrap;html=1;absoluteArcSize=1;arcSize=14;strokeWidth=2;" parent="1" vertex="1">
          <mxGeometry x="110" y="360" width="100" height="50" as="geometry" />
        </mxCell>
        <mxCell id="vCVCzU44iW817XRHqXJX-7" value="ride" style="rounded=1;whiteSpace=wrap;html=1;absoluteArcSize=1;arcSize=14;strokeWidth=2;" parent="1" vertex="1">
          <mxGeometry x="500" y="340" width="100" height="50" as="geometry" />
        </mxCell>
        <mxCell id="JxiKCo-uycpWyMnDwaMi-3" style="edgeStyle=orthogonalEdgeStyle;rounded=0;orthogonalLoop=1;jettySize=auto;html=1;entryX=0.6;entryY=1;entryDx=0;entryDy=0;entryPerimeter=0;" edge="1" parent="1" source="JxiKCo-uycpWyMnDwaMi-1" target="vCVCzU44iW817XRHqXJX-7">
          <mxGeometry relative="1" as="geometry" />
        </mxCell>
        <mxCell id="JxiKCo-uycpWyMnDwaMi-7" value="" style="edgeStyle=orthogonalEdgeStyle;rounded=0;orthogonalLoop=1;jettySize=auto;html=1;" edge="1" parent="1" source="JxiKCo-uycpWyMnDwaMi-1" target="JxiKCo-uycpWyMnDwaMi-4">
          <mxGeometry relative="1" as="geometry" />
        </mxCell>
        <mxCell id="JxiKCo-uycpWyMnDwaMi-8" value="" style="edgeStyle=orthogonalEdgeStyle;rounded=0;orthogonalLoop=1;jettySize=auto;html=1;" edge="1" parent="1" source="JxiKCo-uycpWyMnDwaMi-1" target="JxiKCo-uycpWyMnDwaMi-6">
          <mxGeometry relative="1" as="geometry" />
        </mxCell>
        <mxCell id="JxiKCo-uycpWyMnDwaMi-1" value="if age &amp;gt;18" style="strokeWidth=2;html=1;shape=mxgraph.flowchart.decision;whiteSpace=wrap;" vertex="1" parent="1">
          <mxGeometry x="510" y="520" width="100" height="70" as="geometry" />
        </mxCell>
        <mxCell id="JxiKCo-uycpWyMnDwaMi-4" value="Price is 5" style="rounded=1;whiteSpace=wrap;html=1;absoluteArcSize=1;arcSize=14;strokeWidth=2;" vertex="1" parent="1">
          <mxGeometry x="340" y="620" width="100" height="40" as="geometry" />
        </mxCell>
        <mxCell id="JxiKCo-uycpWyMnDwaMi-6" value="Price is&amp;nbsp; Rs10" style="rounded=1;whiteSpace=wrap;html=1;absoluteArcSize=1;arcSize=14;strokeWidth=2;" vertex="1" parent="1">
          <mxGeometry x="660" y="610" width="100" height="50" as="geometry" />
        </mxCell>
      </root>
    </mxGraphModel>
  </diagram>
</mxfile>
